<svg t="1582512822458" class="icon" viewBox="0 0 1024 1024" version="1.1" xmlns="http://www.w3.org/2000/svg" p-id="2523" width="20" height="20"><path d="M327.68 614.4s-73.03168 99.38944 0 184.32 67.31776 98.67264 0 143.36v20.48s135.4752-56.85248 20.48-163.84c0 0-78.336-80.34304 0-163.84z" fill="#EA68A2" p-id="2524"></path><path d="M307.2 634.88l-61.44 61.44h102.4z" fill="#EA68A2" p-id="2525"></path><path d="M163.84 430.08a225.28 194.56 90 1 0 389.12 0 225.28 194.56 90 1 0-389.12 0Z" fill="#EA68A2" p-id="2526"></path><path d="M696.32 512s73.03168 99.38944 0 184.32-67.31776 98.67264 0 143.36v20.48s-135.4752-56.85248-20.48-163.84c0 0 78.336-80.34304 0-163.84z" fill="#448ACA" p-id="2527"></path><path d="M696.32 512l-61.44 61.44h102.4z" fill="#448ACA" p-id="2528"></path><path d="M471.04 286.72a225.28 194.56 90 1 0 389.12 0 225.28 194.56 90 1 0-389.12 0Z" fill="#448ACA" p-id="2529"></path></svg>