<svg t="1582463727043" class="icon" viewBox="0 0 1024 1024" version="1.1" xmlns="http://www.w3.org/2000/svg" p-id="6002" width="40" height="40"><path d="M804 877H245c-64.5 0-117-52.5-117-117V383c0-64.5 52.5-117 117-117h559c64.5 0 117 52.5 117 117v377c0 64.5-52.5 117-117 117zM245 300c-45.8 0-83 37.2-83 83v377c0 45.8 37.2 83 83 83h559c45.8 0 83-37.2 83-83V383c0-45.8-37.2-83-83-83H245z" fill="#454545" p-id="6003"></path><path d="M286 809.6c-9.4 0-17-7.6-17-17V360.8c0-9.4 7.6-17 17-17s17 7.6 17 17v431.8c0 9.4-7.6 17-17 17zM386 809.6c-9.4 0-17-7.6-17-17V467.2c0-9.4 7.6-17 17-17s17 7.6 17 17v325.5c0 9.3-7.6 16.9-17 16.9zM486 809.6c-9.4 0-17-7.6-17-17V360.8c0-9.4 7.6-17 17-17s17 7.6 17 17v431.8c0 9.4-7.6 17-17 17zM586 809.6c-9.4 0-17-7.6-17-17V360.8c0-9.4 7.6-17 17-17s17 7.6 17 17v431.8c0 9.4-7.6 17-17 17zM686 721.5c-9.4 0-17-7.6-17-17V360.8c0-9.4 7.6-17 17-17s17 7.6 17 17v343.7c0 9.4-7.6 17-17 17zM787 809.6c-9.4 0-17-7.6-17-17V360.8c0-9.4 7.6-17 17-17s17 7.6 17 17v431.8c0 9.4-7.6 17-17 17zM778.2 251.1h-88.1c-30.6 0-55.5-24.9-55.5-55.5 0-11.9-9.6-21.5-21.5-21.5H411.3c-11.9 0-21.5 9.6-21.5 21.5 0 30.6-24.9 55.5-55.5 55.5h-84.2c-9.4 0-17-7.6-17-17s7.6-17 17-17h84.2c11.9 0 21.5-9.6 21.5-21.5 0-30.6 24.9-55.5 55.5-55.5h201.8c30.6 0 55.5 24.9 55.5 55.5 0 11.9 9.6 21.5 21.5 21.5h88.1c9.4 0 17 7.6 17 17s-7.6 17-17 17z" fill="#454545" p-id="6004"></path></svg>