<?xml version="1.0" standalone="no"?><!DOCTYPE svg PUBLIC "-//W3C//DTD SVG 1.1//EN" "http://www.w3.org/Graphics/SVG/1.1/DTD/svg11.dtd"><svg t="1582460702737" class="icon" viewBox="0 0 1024 1024" version="1.1" xmlns="http://www.w3.org/2000/svg" p-id="1296" xmlns:xlink="http://www.w3.org/1999/xlink" width="20" height="20"><defs><style type="text/css"></style></defs><path d="M889.018182 977.454545v-46.545454a39.563636 39.563636 0 0 0 32.581818-16.290909 41.890909 41.890909 0 0 0 4.654545-39.563637 430.545455 430.545455 0 0 0-267.636363-262.981818l13.963636-44.218182a477.090909 477.090909 0 0 1 300.218182 290.909091 88.436364 88.436364 0 0 1-11.636364 81.454546 86.109091 86.109091 0 0 1-72.145454 37.236363zM134.981818 977.454545a86.109091 86.109091 0 0 1-72.145454-37.236363 88.436364 88.436364 0 0 1-11.636364-81.454546 477.090909 477.090909 0 0 1 300.218182-290.909091l13.963636 44.218182A430.545455 430.545455 0 0 0 95.418182 875.054545a41.890909 41.890909 0 0 0 4.654545 39.563637 39.563636 39.563636 0 0 0 32.581818 16.290909z" fill="#FFA942" p-id="1297"></path><path d="M512 651.636364a302.545455 302.545455 0 1 1 302.545455-302.545455 302.545455 302.545455 0 0 1-302.545455 302.545455z m0-558.545455a256 256 0 1 0 256 256A256 256 0 0 0 512 93.090909z" fill="#FFA942" p-id="1298"></path></svg>