<svg t="1582464345199" class="icon" viewBox="0 0 1024 1024" version="1.1" xmlns="http://www.w3.org/2000/svg" p-id="6539" width="40" height="40"><path d="M233.836342 51.117699v922.033037c0 12.448226-0.432147 24.980481 0 37.416704v1.62055l20.490957-8.486882-44.73919-42.962586-71.364228-68.531267-16.457588-15.797363 3.517194 8.486881V142.648774l-3.517194 8.486882 45.063299-43.214672 71.796376-68.939405 16.433579-15.78536-20.478953-8.57091-0.744252 36.468382c-0.312106 15.461249 23.696045 15.449245 24.008151 0l0.744252-36.468382c0.216073-10.635611-13.204483-15.533274-20.490956-8.486881l-84.436667 81.111538-43.970929 42.218333c-4.393492 4.225435-8.198784 7.27447-8.402853 14.16481-0.348118 11.247819 0 22.543654 0 33.791472v693.835563c0 4.489524-0.240082 9.063077 0 13.540597 0.336114 6.386168 4.453512 9.447207 8.558906 13.396548l17.718016 17.009775 102.298731 98.22935 7.490543 7.202445c7.442527 7.202445 20.490957 2.064701 20.490957-8.486881V90.154952c0-12.472234 0.204069-24.956473 0-37.416703v-1.62055c0-15.449245-24.008151-15.473253-24.008151 0z" fill="#2CA6E0" p-id="6540"></path><path d="M112.871273 180.281551H76.919067c-10.119436 0-20.406928-0.492167-30.490352 0-11.463892 0.600204-22.807743 8.006718-29.818123 16.709673C4.49848 212.092351 1.653514 230.99877 1.653514 249.809156v515.070871c0 8.018722-0.312106 16.109469 0 24.128191 0.70824 15.533274 4.717602 32.026873 15.305196 43.874896 7.850665 8.774979 18.810386 12.100108 30.274278 12.100108h63.837674c6.278131 0 12.292173-5.521875 12.004075-12.004075a12.208145 12.208145 0 0 0-12.004075-12.004076H46.716813c-1.404477 0-2.784946 0-4.189422-0.096032-2.736929-0.096033 2.616888 0.564192-0.408139-0.096033-1.020346-0.216073-1.992677-0.624212-3.001019-0.852289-2.136725-0.480163 2.196746 1.140387 0.91231 0.420143-0.600204-0.336114-1.200408-0.5882-1.836623-0.936318s-1.440489-0.97233-2.196746-1.392473c-1.272432-0.720245 2.400815 2.136725 0.852289 0.64822-0.26409-0.26409-0.576196-0.492167-0.852289-0.744253a28.101541 28.101541 0 0 1-1.992677-2.016684c-0.312106-0.348118-0.600204-0.732249-0.924314-1.080367-0.540183-0.576196 1.812615 2.676909 0.348119 0.38413-0.924314-1.440489-1.836624-2.868974-2.628893-4.405495a12.748328 12.748328 0 0 0-1.200407-2.568873c1.356461 1.476501 0.984334 2.484844 0.456154 1.032351-0.228077-0.612208-0.468159-1.200408-0.684232-1.848628a69.023434 69.023434 0 0 1-2.712921-10.275488c-0.32411-1.704579-0.804273-6.002038-0.32411-1.572534-0.144049-1.320448-0.312106-2.628893-0.420143-3.949341s-0.204069-2.820958-0.216073-4.225435v-536.462133-3.361141-4.141406c0-1.380469 0.108037-3.001019 0.216073-4.501528s0.840285-3.76928 0.504172-5.137745c0.480163 1.920652-0.216073 1.572534 0 0.132045q0.168057-1.044355 0.372126-2.100713 0.38413-1.992677 0.876297-3.961345a61.376838 61.376838 0 0 1 2.20875-7.034388c1.200408-3.169076-1.03235 2.124721 0.372127-0.828281q0.672228-1.416481 1.428485-2.784946c0.852289-1.536522 2.568872-3.229096 3.121059-4.80163-0.732249 2.136725-1.62055 1.968668-0.564191 0.744253l0.672228-0.792269q0.816277-0.936318 1.692575-1.82462c1.092371-1.092371 2.292778-2.028689 3.433165-3.061039-3.193084 2.868974-1.332452 1.03235-0.38413 0.38413q0.816277-0.552187 1.668566-1.056358c1.03235-0.612208 2.100713-1.200408 3.169076-1.680571 2.400815-1.200408-2.400815 0.900306-1.116379 0.456155 0.456155-0.156053 0.900306-0.348118 1.344457-0.504171 0.792269-0.276094 1.608546-0.516175 2.400815-0.732249 0.528179-0.132045 1.068363-0.240082 1.608546-0.360122 2.220754-0.492167-2.136725 0.276094-2.14873 0.26409 2.977011 0.288098 6.146087 0 9.147106 0H112.811253c6.278131 0 12.292173-5.521875 12.004075-12.004076a12.208145 12.208145 0 0 0-12.004075-12.004075zM766.289114 48.236721v922.033037c0 12.46023-0.240082 24.956473 0 37.416703v1.620551c0 10.551582 13.04843 15.605298 20.490956 8.486881l84.376647-81.027509 43.574794-41.834204c3.985353-3.8293 7.802649-6.782303 8.126759-13.012417 0.072024-1.380469 0-2.772941 0-4.15341V186.103528c0-15.19716 0.720245-30.562376 0-45.747532-0.32411-6.854327-4.453512-9.951379-8.859008-14.176813l-18.006113-17.249857-102.514804-98.433419-7.490544-7.202445c-7.322486-7.034388-20.70703-2.14873-20.490956 8.486882l0.792269 36.456377c0.312106 15.425237 24.320257 15.485257 24.008151 0l-0.744253-36.468382-20.502961 8.522894 45.063299 43.214672 71.796376 68.939405 16.433579 15.785359-3.517194-8.486881v710.365175c0 10.167452-0.444151 20.406928 0 30.610392v1.308444l3.517194-8.486881-44.739189 42.962586-71.364229 68.531267-16.457587 15.797363 20.490956 8.486882V87.297982c0-12.472234 0.204069-24.956473 0-37.416703v-1.62055c0.024008-15.449245-23.984143-15.473253-23.984142-0.024008z" fill="#2CA6E0" p-id="6541"></path><path d="M911.262333 201.372712h64.605934a5.677928 5.677928 0 0 0 1.692575 0c-0.26409 0.120041-4.357479-0.780265-2.148729-0.26409 0.612208 0.144049 1.200408 0.26409 1.848627 0.420143s1.500509 0.432147 2.244762 0.696236c0.408139 0.144049 0.804273 0.312106 1.200408 0.456155 1.572534 0.540183-3.2411-1.476501-1.716583-0.732249l0.900306 0.408139a34.811819 34.811819 0 0 1 3.205088 1.728587q0.768261 0.468159 1.512513 0.97233c0.288098 0.192065 0.552187 0.420143 0.85229 0.600204 1.572534 0.948322-2.47284-2.064701-1.056359-0.828282 1.200408 1.020346 2.400815 2.016685 3.433166 3.133064q0.792269 0.816277 1.524517 1.668567l0.828281 0.996338c1.380469 1.596542-1.752595-2.520856-0.564191-0.708241s2.160734 3.217092 3.085047 4.945679c0.504171 0.936318 0.948322 1.88464 1.416481 2.844966 0.372126 0.756257 0.504171 1.872636-0.408138-1.044354 0.204069 0.64822 0.516175 1.284436 0.756256 1.920652a62.613258 62.613258 0 0 1 2.14873 7.202445q0.480163 1.992677 0.840285 4.021365l0.288098 1.692575c0.468159 2.688913-0.192065-2.220754 0 0.348118 0.540183 5.509871 0.64822 10.995733 0.64822 16.529612v511.697726c0 8.174775 0.132045 16.361555 0 24.53633 0 1.548526-0.132045 3.097051-0.26409 4.645577-0.108037 1.200408-0.312106 2.400815-0.396134 3.601223 0.360122-4.705598 0.228077-1.668566 0-0.52818q-0.216073 1.320448-0.468159 2.616889a66.946729 66.946729 0 0 1-2.953003 10.599598c-0.132045 0.348118-0.276094 0.696236-0.408138 1.056359-0.720245 2.028689 1.128383-2.400815 0.444151-1.044354-0.38413 0.756257-0.70824 1.548526-1.104375 2.304782s-0.900306 1.680571-1.380469 2.484844-1.824619 2.14873-1.896644 2.832961c0-0.120041 2.028689-2.400815 0.828281-1.09237-0.32411 0.348118-0.612208 0.720245-0.936318 1.068362-0.576196 0.624212-1.200408 1.200408-1.800611 1.812616-0.240082 0.216073-1.200408 0.816277-1.29644 1.116379 0-0.168057 2.568872-1.740591 1.056359-0.85229-1.008342 0.5882-1.980672 1.200408-2.989015 1.776604-2.544864 1.428485 2.26877-0.612208-0.180061 0-0.91231 0.252086-1.788607 0.552187-2.712921 0.756256-3.217092 0.696236 2.59288-0.108037-0.756257 0.132045-1.848628 0.132045-3.721263 0.072024-5.569891 0.072025H913.002924c-6.278131 0-12.292173 5.521875-12.004075 12.004075a12.208145 12.208145 0 0 0 12.004075 12.004076c22.039483 0 44.102973 0.300102 66.130452 0 10.803668-0.144049 21.451283-4.369483 28.533687-12.748329a59.828312 59.828312 0 0 0 12.124117-24.704387c2.652901-10.923709 2.676909-21.511303 2.676908-32.579061V255.391051c0-11.283831 0.108037-22.495637-2.160733-33.611411-3.385149-16.61364-13.120454-33.191269-29.025855-40.453734a39.241323 39.241323 0 0 0-13.648634-3.913329c-2.772941-0.192065-5.605903 0-8.402852 0h-57.979685c-6.278131 0-12.292173 5.521875-12.004075 12.004075a12.208145 12.208145 0 0 0 12.004075 12.004076zM327.516147 585.527135h322.90963c14.897058 0 29.86614 0.432147 44.751193 0h0.648221c7.718621 0 7.742629-12.004075 0-12.004075h-322.909631c-14.897058 0-29.86614-0.432147-44.751193 0h-0.624212c-7.718621 0-7.742629 12.004075 0 12.004075zM700.626821 513.886813a400.011807 400.011807 0 0 0-17.85006-77.498312c-4.021365-11.824014-7.790645-23.756065-13.204484-35.039896-2.544864-5.305801-4.09339-11.031745-6.338151-16.481596q-3.601223-8.594918-7.790645-16.87773c-6.350156-12.448226-13.468573-24.452302-19.806725-36.816499-3.049035-6.002038-13.420556-1.788607-10.971725 4.621569l0.26409 0.684232c1.056359 2.748933 4.15341 5.509871 7.382506 4.189422 3.805292-1.548526 5.365822-4.993695 3.601223-8.810991l-0.312106-0.660224c-2.880978-6.158091-13.036426-1.812615-10.971725 4.621569 0.864293 2.688913 1.752595 4.80163 4.057377 6.518213 3.397153 2.544864 7.586576-0.38413 8.810992-3.601223 0.960326-2.520856-0.696236-5.425842-1.896644-7.550563a6.002038 6.002038 0 0 0-10.359517 0c-9.255142 16.16949-18.246195 32.603069-25.964816 49.564827-2.628893 5.77396-5.221773 11.559925-7.706616 17.393906-3.529198 8.270808-6.002038 17.069795-8.606922 25.652709l1.548526-2.652901-0.516176 0.516176 2.652901-1.548526c-1.776603 0.540183-4.393492 0.132045-6.266127 0.168057l-7.778641 0.180061q-7.766637 0.168057-15.533274 0.288098-14.909062 0.240082-29.818123 0.336114-30.094217 0.180061-60.188435-0.26409-17.345889-0.252086-34.691778-0.720244l5.785964 4.405496c-9.975387-32.555053-25.208559-63.213461-42.182321-92.659459-3.289117-5.725944-13.396548-1.908648-10.971725 4.621569 0.97233 2.616888 1.812615 4.945679 4.165414 6.614246 4.045373 2.844966 8.690951-1.068363 9.027065-5.185761 0.168057-2.112717-1.200408-4.309463-2.232758-6.002038a6.002038 6.002038 0 0 0-10.359517 0c-24.452302 43.922912-44.415079 90.654778-56.491179 139.535374q-5.137744 20.803063-8.30682 42.014264c-0.480163 3.205088 0.804273 6.446189 4.189422 7.382506 2.832962 0.780265 6.902343-0.960326 7.382506-4.189422 7.322486-49.072661 22.951792-96.596795 44.259027-141.335985q9.051073-18.990447 19.326561-37.356683h-10.359517q0.480163 0.792269 0.888302 1.632555a3.481182 3.481182 0 0 1-0.300102-1.632555l9.051073-5.209768-0.084029-0.060021 2.14873 2.14873a5.053716 5.053716 0 0 1-0.720245-1.524518l-10.971725 4.621569c16.433579 28.5697 31.282621 58.195758 40.96991 89.790485a6.170095 6.170095 0 0 0 5.785964 4.405495q60.536553 1.596542 121.109118 0.708241 14.945074-0.228077 29.890147-0.600204c2.604884-0.06002 5.545883 0.240082 7.886678-1.128383s3.157072-3.841304 4.045374-6.266127c1.56053-4.21343 2.664905-8.57091 3.94934-12.868369 0.612208-2.052697 1.260428-4.105394 2.028689-6.110075 0.168057-0.444151 0.348118-0.888302 0.516175-1.320448 0.096033-0.240082 0.504171-1.200408 0.096033-0.252086s0.564192-1.320448 0.756257-1.776603l1.35646-3.109055q3.517194-8.042731 7.202446-16.013437c7.298478-15.773355 15.761351-31.078551 24.404285-46.131662h-10.359517q0.468159 0.792269 0.876297 1.62055-0.312106-0.816277-0.156053-0.216073v-3.193084 0.084028l8.810992-3.601222-0.108037-0.084029 2.14873 2.14873c-0.504171-0.744253-0.26409-0.396134-0.5882-1.416481l-10.971725 4.621569 0.312106 0.660224 3.601223-8.810992 7.382506 4.189423-0.26409-0.684232-10.971725 4.621569c10.803668 21.163185 23.50398 41.149971 31.042539 63.825669 1.920652 5.785964 5.173757 11.211806 7.358499 16.949754s4.021365 11.283831 5.930013 16.961759c4.057378 12.0761 7.850665 24.176208 10.911705 36.55241a378.332447 378.332447 0 0 1 8.054734 42.410399c0.420143 3.217092 2.400815 6.002038 6.002038 6.002037 2.91699 0 6.42218-2.760937 6.002038-6.002037z" fill="#2CA6E0" p-id="6542"></path></svg>